<mxfile host="app.diagrams.net" agent="Mozilla/5.0 (Windows NT 10.0; Win64; x64) AppleWebKit/537.36 (KHTML, like Gecko) Chrome/140.0.0.0 Safari/537.36" version="28.2.5">
  <diagram name="Page-1" id="Egpv2YrF1JcGvGCiC96Z">
    <mxGraphModel grid="1" page="1" gridSize="10" guides="1" tooltips="1" connect="1" arrows="1" fold="1" pageScale="1" pageWidth="827" pageHeight="1169" math="0" shadow="0">
      <root>
        <mxCell id="0" />
        <mxCell id="1" parent="0" />
        <mxCell id="McAtrPIl6zo0Tuam-e3Y-54" style="edgeStyle=orthogonalEdgeStyle;rounded=0;orthogonalLoop=1;jettySize=auto;html=1;entryX=0.5;entryY=0;entryDx=0;entryDy=0;" edge="1" parent="1" source="McAtrPIl6zo0Tuam-e3Y-2" target="McAtrPIl6zo0Tuam-e3Y-6">
          <mxGeometry relative="1" as="geometry" />
        </mxCell>
        <mxCell id="McAtrPIl6zo0Tuam-e3Y-2" value="" style="rounded=0;whiteSpace=wrap;html=1;fillColor=#1ba1e2;fontColor=#ffffff;strokeColor=#006EAF;" vertex="1" parent="1">
          <mxGeometry x="304" y="10" width="146" height="90" as="geometry" />
        </mxCell>
        <mxCell id="McAtrPIl6zo0Tuam-e3Y-3" value="&lt;b&gt;SPA&lt;/b&gt;&lt;div&gt;(reactjs)&lt;/div&gt;" style="text;html=1;align=center;verticalAlign=middle;whiteSpace=wrap;rounded=0;" vertex="1" parent="1">
          <mxGeometry x="300" y="10" width="150" height="30" as="geometry" />
        </mxCell>
        <mxCell id="McAtrPIl6zo0Tuam-e3Y-4" value="GUI for the application" style="text;html=1;align=center;verticalAlign=middle;whiteSpace=wrap;rounded=0;" vertex="1" parent="1">
          <mxGeometry x="316" y="60" width="122" height="40" as="geometry" />
        </mxCell>
        <mxCell id="McAtrPIl6zo0Tuam-e3Y-5" value="" style="rounded=0;whiteSpace=wrap;html=1;" vertex="1" parent="1">
          <mxGeometry x="300" y="160" width="150" height="80" as="geometry" />
        </mxCell>
        <mxCell id="McAtrPIl6zo0Tuam-e3Y-6" value="&lt;b&gt;API&lt;/b&gt;&lt;div&gt;[.NET Core API]&lt;/div&gt;" style="text;html=1;align=center;verticalAlign=middle;whiteSpace=wrap;rounded=0;fillColor=#1ba1e2;fontColor=#ffffff;strokeColor=#006EAF;" vertex="1" parent="1">
          <mxGeometry x="302" y="160" width="150" height="80" as="geometry" />
        </mxCell>
        <mxCell id="McAtrPIl6zo0Tuam-e3Y-7" value="" style="rounded=0;whiteSpace=wrap;html=1;" vertex="1" parent="1">
          <mxGeometry x="120" y="320" width="120" height="60" as="geometry" />
        </mxCell>
        <mxCell id="McAtrPIl6zo0Tuam-e3Y-8" value="" style="rounded=0;whiteSpace=wrap;html=1;" vertex="1" parent="1">
          <mxGeometry x="310" y="320" width="130" height="60" as="geometry" />
        </mxCell>
        <mxCell id="McAtrPIl6zo0Tuam-e3Y-9" value="" style="rounded=0;whiteSpace=wrap;html=1;" vertex="1" parent="1">
          <mxGeometry x="500" y="320" width="120" height="60" as="geometry" />
        </mxCell>
        <mxCell id="McAtrPIl6zo0Tuam-e3Y-10" value="" style="rounded=0;whiteSpace=wrap;html=1;" vertex="1" parent="1">
          <mxGeometry x="670" y="320" width="130" height="60" as="geometry" />
        </mxCell>
        <mxCell id="McAtrPIl6zo0Tuam-e3Y-11" value="" style="rounded=0;whiteSpace=wrap;html=1;" vertex="1" parent="1">
          <mxGeometry x="850" y="320" width="120" height="60" as="geometry" />
        </mxCell>
        <mxCell id="McAtrPIl6zo0Tuam-e3Y-12" value="&lt;b&gt;Registration&lt;/b&gt;&lt;div&gt;[.NET libraries]&lt;/div&gt;" style="text;html=1;align=center;verticalAlign=middle;whiteSpace=wrap;rounded=0;fillColor=#1ba1e2;fontColor=#ffffff;strokeColor=#006EAF;" vertex="1" parent="1">
          <mxGeometry x="120" y="320" width="120" height="60" as="geometry" />
        </mxCell>
        <mxCell id="McAtrPIl6zo0Tuam-e3Y-13" value="&lt;b&gt;User Access&lt;/b&gt;&lt;div&gt;[.NET libraries]&lt;/div&gt;" style="text;html=1;align=center;verticalAlign=middle;whiteSpace=wrap;rounded=0;fillColor=#1ba1e2;fontColor=#ffffff;strokeColor=#006EAF;" vertex="1" parent="1">
          <mxGeometry x="310" y="320" width="130" height="60" as="geometry" />
        </mxCell>
        <mxCell id="McAtrPIl6zo0Tuam-e3Y-14" value="&lt;b&gt;Meeting&lt;/b&gt;&lt;div&gt;[.NET libraries]&lt;/div&gt;" style="text;html=1;align=center;verticalAlign=middle;whiteSpace=wrap;rounded=0;fillColor=#1ba1e2;fontColor=#ffffff;strokeColor=#006EAF;" vertex="1" parent="1">
          <mxGeometry x="500" y="320" width="120" height="60" as="geometry" />
        </mxCell>
        <mxCell id="McAtrPIl6zo0Tuam-e3Y-29" style="edgeStyle=orthogonalEdgeStyle;rounded=0;orthogonalLoop=1;jettySize=auto;html=1;entryX=0.5;entryY=0;entryDx=0;entryDy=0;" edge="1" parent="1" source="McAtrPIl6zo0Tuam-e3Y-15" target="McAtrPIl6zo0Tuam-e3Y-28">
          <mxGeometry relative="1" as="geometry" />
        </mxCell>
        <mxCell id="McAtrPIl6zo0Tuam-e3Y-15" value="&lt;b&gt;Administration&lt;/b&gt;&lt;div&gt;[.NET libraries]&lt;/div&gt;" style="text;html=1;align=center;verticalAlign=middle;whiteSpace=wrap;rounded=0;fillColor=#1ba1e2;fontColor=#ffffff;strokeColor=#006EAF;" vertex="1" parent="1">
          <mxGeometry x="670" y="320" width="130" height="60" as="geometry" />
        </mxCell>
        <mxCell id="McAtrPIl6zo0Tuam-e3Y-16" value="&lt;b&gt;Payment&lt;/b&gt;&lt;div&gt;[.NET libraries]&lt;/div&gt;" style="text;html=1;align=center;verticalAlign=middle;whiteSpace=wrap;rounded=0;fillColor=#1ba1e2;fontColor=#ffffff;strokeColor=#006EAF;" vertex="1" parent="1">
          <mxGeometry x="850" y="320" width="120" height="60" as="geometry" />
        </mxCell>
        <mxCell id="McAtrPIl6zo0Tuam-e3Y-17" value="" style="strokeWidth=2;html=1;shape=mxgraph.flowchart.database;whiteSpace=wrap;fillColor=#1ba1e2;fontColor=#ffffff;strokeColor=#006EAF;" vertex="1" parent="1">
          <mxGeometry x="-290" y="490" width="120" height="80" as="geometry" />
        </mxCell>
        <mxCell id="McAtrPIl6zo0Tuam-e3Y-18" value="&lt;b&gt;Registration Data&lt;/b&gt;&lt;div&gt;[Schema]&lt;/div&gt;" style="text;html=1;align=center;verticalAlign=middle;whiteSpace=wrap;rounded=0;" vertex="1" parent="1">
          <mxGeometry x="-290" y="510" width="120" height="50" as="geometry" />
        </mxCell>
        <mxCell id="McAtrPIl6zo0Tuam-e3Y-19" value="" style="strokeWidth=2;html=1;shape=mxgraph.flowchart.database;whiteSpace=wrap;fillColor=#1ba1e2;fontColor=#ffffff;strokeColor=#006EAF;" vertex="1" parent="1">
          <mxGeometry x="-100" y="490" width="120" height="80" as="geometry" />
        </mxCell>
        <mxCell id="McAtrPIl6zo0Tuam-e3Y-20" value="&lt;b&gt;User Access Schema&lt;/b&gt;&lt;br&gt;&lt;div&gt;[Schema]&lt;/div&gt;" style="text;html=1;align=center;verticalAlign=middle;whiteSpace=wrap;rounded=0;" vertex="1" parent="1">
          <mxGeometry x="-100" y="510" width="120" height="50" as="geometry" />
        </mxCell>
        <mxCell id="McAtrPIl6zo0Tuam-e3Y-21" value="" style="strokeWidth=2;html=1;shape=mxgraph.flowchart.database;whiteSpace=wrap;fillColor=#1ba1e2;fontColor=#ffffff;strokeColor=#006EAF;" vertex="1" parent="1">
          <mxGeometry x="90" y="490" width="120" height="80" as="geometry" />
        </mxCell>
        <mxCell id="McAtrPIl6zo0Tuam-e3Y-22" value="&lt;b&gt;Meeting Data&lt;/b&gt;&lt;div&gt;[Schema]&lt;/div&gt;" style="text;html=1;align=center;verticalAlign=middle;whiteSpace=wrap;rounded=0;" vertex="1" parent="1">
          <mxGeometry x="90" y="510" width="120" height="50" as="geometry" />
        </mxCell>
        <mxCell id="McAtrPIl6zo0Tuam-e3Y-23" value="" style="strokeWidth=2;html=1;shape=mxgraph.flowchart.database;whiteSpace=wrap;fillColor=#1ba1e2;fontColor=#ffffff;strokeColor=#006EAF;" vertex="1" parent="1">
          <mxGeometry x="270" y="490" width="120" height="80" as="geometry" />
        </mxCell>
        <mxCell id="McAtrPIl6zo0Tuam-e3Y-24" value="&lt;b&gt;Administration Data&lt;/b&gt;&lt;div&gt;[Schema]&lt;/div&gt;" style="text;html=1;align=center;verticalAlign=middle;whiteSpace=wrap;rounded=0;" vertex="1" parent="1">
          <mxGeometry x="270" y="510" width="120" height="50" as="geometry" />
        </mxCell>
        <mxCell id="McAtrPIl6zo0Tuam-e3Y-25" value="" style="strokeWidth=2;html=1;shape=mxgraph.flowchart.database;whiteSpace=wrap;fillColor=#1ba1e2;fontColor=#ffffff;strokeColor=#006EAF;" vertex="1" parent="1">
          <mxGeometry x="440" y="490" width="120" height="80" as="geometry" />
        </mxCell>
        <mxCell id="McAtrPIl6zo0Tuam-e3Y-26" value="&lt;b&gt;Payment Data&lt;/b&gt;&lt;div&gt;[Schema]&lt;/div&gt;" style="text;html=1;align=center;verticalAlign=middle;whiteSpace=wrap;rounded=0;" vertex="1" parent="1">
          <mxGeometry x="440" y="510" width="120" height="50" as="geometry" />
        </mxCell>
        <mxCell id="McAtrPIl6zo0Tuam-e3Y-27" value="" style="rounded=1;whiteSpace=wrap;html=1;" vertex="1" parent="1">
          <mxGeometry x="675" y="490" width="120" height="60" as="geometry" />
        </mxCell>
        <mxCell id="McAtrPIl6zo0Tuam-e3Y-28" value="&lt;b&gt;Events Bus&lt;/b&gt;&lt;div&gt;[In memory]&lt;/div&gt;" style="text;html=1;align=center;verticalAlign=middle;whiteSpace=wrap;rounded=0;fillColor=#1ba1e2;fontColor=#ffffff;strokeColor=#006EAF;" vertex="1" parent="1">
          <mxGeometry x="675" y="490" width="120" height="60" as="geometry" />
        </mxCell>
        <mxCell id="McAtrPIl6zo0Tuam-e3Y-32" value="" style="endArrow=classic;html=1;rounded=0;strokeColor=default;curved=1;exitX=1;exitY=1;exitDx=0;exitDy=0;entryX=1;entryY=0.5;entryDx=0;entryDy=0;" edge="1" parent="1" source="McAtrPIl6zo0Tuam-e3Y-16" target="McAtrPIl6zo0Tuam-e3Y-28">
          <mxGeometry width="50" height="50" relative="1" as="geometry">
            <mxPoint x="980" y="530" as="sourcePoint" />
            <mxPoint x="1030" y="480" as="targetPoint" />
            <Array as="points">
              <mxPoint x="1090" y="470" />
            </Array>
          </mxGeometry>
        </mxCell>
        <mxCell id="McAtrPIl6zo0Tuam-e3Y-33" value="" style="endArrow=classic;html=1;rounded=0;exitX=0.5;exitY=1;exitDx=0;exitDy=0;entryX=0.25;entryY=0;entryDx=0;entryDy=0;curved=1;" edge="1" parent="1" source="McAtrPIl6zo0Tuam-e3Y-14" target="McAtrPIl6zo0Tuam-e3Y-28">
          <mxGeometry width="50" height="50" relative="1" as="geometry">
            <mxPoint x="620" y="540" as="sourcePoint" />
            <mxPoint x="670" y="490" as="targetPoint" />
            <Array as="points">
              <mxPoint x="560" y="410" />
              <mxPoint x="560" y="450" />
              <mxPoint x="620" y="450" />
              <mxPoint x="660" y="450" />
            </Array>
          </mxGeometry>
        </mxCell>
        <mxCell id="McAtrPIl6zo0Tuam-e3Y-35" value="" style="swimlane;startSize=0;dashed=1;" vertex="1" parent="1">
          <mxGeometry x="-320" y="450" width="955" height="170" as="geometry" />
        </mxCell>
        <mxCell id="McAtrPIl6zo0Tuam-e3Y-41" value="" style="endArrow=classic;html=1;rounded=0;exitX=0;exitY=0.5;exitDx=0;exitDy=0;entryX=0;entryY=0.5;entryDx=0;entryDy=0;curved=1;" edge="1" parent="McAtrPIl6zo0Tuam-e3Y-35" source="McAtrPIl6zo0Tuam-e3Y-15" target="McAtrPIl6zo0Tuam-e3Y-24">
          <mxGeometry width="50" height="50" relative="1" as="geometry">
            <mxPoint x="590" y="20" as="sourcePoint" />
            <mxPoint x="640" y="-30" as="targetPoint" />
            <Array as="points">
              <mxPoint x="960" y="-40" />
              <mxPoint x="630" y="-60" />
              <mxPoint x="510" y="-50" />
              <mxPoint x="400" y="-10" />
              <mxPoint x="450" y="40" />
              <mxPoint x="560" y="30" />
            </Array>
          </mxGeometry>
        </mxCell>
        <mxCell id="McAtrPIl6zo0Tuam-e3Y-36" value="" style="endArrow=classic;html=1;rounded=0;entryX=0.25;entryY=0;entryDx=0;entryDy=0;exitX=0.5;exitY=1;exitDx=0;exitDy=0;curved=1;" edge="1" parent="1" source="McAtrPIl6zo0Tuam-e3Y-13" target="McAtrPIl6zo0Tuam-e3Y-28">
          <mxGeometry width="50" height="50" relative="1" as="geometry">
            <mxPoint x="360" y="530" as="sourcePoint" />
            <mxPoint x="410" y="480" as="targetPoint" />
            <Array as="points">
              <mxPoint x="370" y="440" />
              <mxPoint x="470" y="450" />
              <mxPoint x="630" y="450" />
              <mxPoint x="650" y="450" />
            </Array>
          </mxGeometry>
        </mxCell>
        <mxCell id="McAtrPIl6zo0Tuam-e3Y-37" value="" style="endArrow=classic;html=1;rounded=0;exitX=0.5;exitY=1;exitDx=0;exitDy=0;entryX=0.25;entryY=0;entryDx=0;entryDy=0;curved=1;" edge="1" parent="1" source="McAtrPIl6zo0Tuam-e3Y-12" target="McAtrPIl6zo0Tuam-e3Y-28">
          <mxGeometry width="50" height="50" relative="1" as="geometry">
            <mxPoint x="360" y="530" as="sourcePoint" />
            <mxPoint x="410" y="480" as="targetPoint" />
            <Array as="points">
              <mxPoint x="190" y="450" />
              <mxPoint x="300" y="450" />
              <mxPoint x="480" y="450" />
              <mxPoint x="570" y="450" />
              <mxPoint x="660" y="450" />
            </Array>
          </mxGeometry>
        </mxCell>
        <mxCell id="McAtrPIl6zo0Tuam-e3Y-38" value="" style="endArrow=classic;html=1;rounded=0;exitX=0;exitY=0.5;exitDx=0;exitDy=0;entryX=0;entryY=0.5;entryDx=0;entryDy=0;curved=1;" edge="1" parent="1" source="McAtrPIl6zo0Tuam-e3Y-12" target="McAtrPIl6zo0Tuam-e3Y-18">
          <mxGeometry width="50" height="50" relative="1" as="geometry">
            <mxPoint x="50" y="510" as="sourcePoint" />
            <mxPoint x="100" y="460" as="targetPoint" />
            <Array as="points">
              <mxPoint x="-380" y="300" />
              <mxPoint x="-350" y="450" />
              <mxPoint x="-300" y="490" />
            </Array>
          </mxGeometry>
        </mxCell>
        <mxCell id="McAtrPIl6zo0Tuam-e3Y-39" value="" style="endArrow=classic;html=1;rounded=0;exitX=0;exitY=0.5;exitDx=0;exitDy=0;entryX=0;entryY=0.5;entryDx=0;entryDy=0;curved=1;" edge="1" parent="1" source="McAtrPIl6zo0Tuam-e3Y-13" target="McAtrPIl6zo0Tuam-e3Y-20">
          <mxGeometry width="50" height="50" relative="1" as="geometry">
            <mxPoint x="-120" y="510" as="sourcePoint" />
            <mxPoint x="-70" y="460" as="targetPoint" />
            <Array as="points">
              <mxPoint x="320" y="390" />
              <mxPoint x="250" y="400" />
              <mxPoint x="-350" y="400" />
            </Array>
          </mxGeometry>
        </mxCell>
        <mxCell id="McAtrPIl6zo0Tuam-e3Y-40" value="" style="endArrow=classic;html=1;rounded=0;exitX=0;exitY=0.5;exitDx=0;exitDy=0;entryX=0;entryY=0.5;entryDx=0;entryDy=0;curved=1;" edge="1" parent="1" source="McAtrPIl6zo0Tuam-e3Y-14" target="McAtrPIl6zo0Tuam-e3Y-22">
          <mxGeometry width="50" height="50" relative="1" as="geometry">
            <mxPoint x="240" y="510" as="sourcePoint" />
            <mxPoint x="290" y="460" as="targetPoint" />
            <Array as="points">
              <mxPoint x="500" y="390" />
              <mxPoint x="-120" y="410" />
              <mxPoint x="-70" y="480" />
              <mxPoint x="50" y="490" />
            </Array>
          </mxGeometry>
        </mxCell>
        <mxCell id="McAtrPIl6zo0Tuam-e3Y-47" value="Store/retrieve" style="text;html=1;align=center;verticalAlign=middle;whiteSpace=wrap;rounded=0;" vertex="1" parent="1">
          <mxGeometry x="-350" y="370" width="90" height="40" as="geometry" />
        </mxCell>
        <mxCell id="McAtrPIl6zo0Tuam-e3Y-48" value="Store/retrieve" style="text;html=1;align=center;verticalAlign=middle;whiteSpace=wrap;rounded=0;" vertex="1" parent="1">
          <mxGeometry x="-190" y="410" width="90" height="40" as="geometry" />
        </mxCell>
        <mxCell id="McAtrPIl6zo0Tuam-e3Y-49" value="Store/retrieve" style="text;html=1;align=center;verticalAlign=middle;whiteSpace=wrap;rounded=0;" vertex="1" parent="1">
          <mxGeometry x="-50" y="410" width="90" height="40" as="geometry" />
        </mxCell>
        <mxCell id="McAtrPIl6zo0Tuam-e3Y-50" value="Store/retrieve" style="text;html=1;align=center;verticalAlign=middle;whiteSpace=wrap;rounded=0;" vertex="1" parent="1">
          <mxGeometry x="112.5" y="420" width="90" height="40" as="geometry" />
        </mxCell>
        <mxCell id="McAtrPIl6zo0Tuam-e3Y-51" value="" style="endArrow=classic;html=1;rounded=0;exitX=0.5;exitY=1;exitDx=0;exitDy=0;entryX=0.5;entryY=0;entryDx=0;entryDy=0;entryPerimeter=0;curved=1;" edge="1" parent="1" source="McAtrPIl6zo0Tuam-e3Y-16" target="McAtrPIl6zo0Tuam-e3Y-25">
          <mxGeometry width="50" height="50" relative="1" as="geometry">
            <mxPoint x="600" y="500" as="sourcePoint" />
            <mxPoint x="650" y="450" as="targetPoint" />
            <Array as="points">
              <mxPoint x="910" y="460" />
              <mxPoint x="560" y="440" />
            </Array>
          </mxGeometry>
        </mxCell>
        <mxCell id="McAtrPIl6zo0Tuam-e3Y-52" value="Store/retrieve" style="text;html=1;align=center;verticalAlign=middle;whiteSpace=wrap;rounded=0;" vertex="1" parent="1">
          <mxGeometry x="900" y="410" width="90" height="40" as="geometry" />
        </mxCell>
        <mxCell id="McAtrPIl6zo0Tuam-e3Y-53" value="publishes event to subcribe" style="text;html=1;align=center;verticalAlign=middle;whiteSpace=wrap;rounded=0;" vertex="1" parent="1">
          <mxGeometry x="1010" y="400" width="110" height="30" as="geometry" />
        </mxCell>
        <mxCell id="McAtrPIl6zo0Tuam-e3Y-55" value="" style="endArrow=classic;html=1;rounded=0;exitX=0;exitY=1;exitDx=0;exitDy=0;entryX=0.5;entryY=0;entryDx=0;entryDy=0;" edge="1" parent="1" source="McAtrPIl6zo0Tuam-e3Y-5" target="McAtrPIl6zo0Tuam-e3Y-12">
          <mxGeometry width="50" height="50" relative="1" as="geometry">
            <mxPoint x="410" y="250" as="sourcePoint" />
            <mxPoint x="460" y="200" as="targetPoint" />
          </mxGeometry>
        </mxCell>
        <mxCell id="McAtrPIl6zo0Tuam-e3Y-56" value="" style="endArrow=classic;html=1;rounded=0;exitX=0.5;exitY=1;exitDx=0;exitDy=0;entryX=0.5;entryY=0;entryDx=0;entryDy=0;" edge="1" parent="1" source="McAtrPIl6zo0Tuam-e3Y-6" target="McAtrPIl6zo0Tuam-e3Y-13">
          <mxGeometry width="50" height="50" relative="1" as="geometry">
            <mxPoint x="410" y="250" as="sourcePoint" />
            <mxPoint x="460" y="200" as="targetPoint" />
          </mxGeometry>
        </mxCell>
        <mxCell id="McAtrPIl6zo0Tuam-e3Y-57" value="" style="endArrow=classic;html=1;rounded=0;exitX=0.75;exitY=1;exitDx=0;exitDy=0;entryX=0.5;entryY=0;entryDx=0;entryDy=0;" edge="1" parent="1" source="McAtrPIl6zo0Tuam-e3Y-6" target="McAtrPIl6zo0Tuam-e3Y-14">
          <mxGeometry width="50" height="50" relative="1" as="geometry">
            <mxPoint x="410" y="250" as="sourcePoint" />
            <mxPoint x="460" y="200" as="targetPoint" />
          </mxGeometry>
        </mxCell>
        <mxCell id="McAtrPIl6zo0Tuam-e3Y-58" value="" style="endArrow=classic;html=1;rounded=0;entryX=0.5;entryY=0;entryDx=0;entryDy=0;exitX=1;exitY=1;exitDx=0;exitDy=0;" edge="1" parent="1" source="McAtrPIl6zo0Tuam-e3Y-6" target="McAtrPIl6zo0Tuam-e3Y-15">
          <mxGeometry width="50" height="50" relative="1" as="geometry">
            <mxPoint x="410" y="250" as="sourcePoint" />
            <mxPoint x="460" y="200" as="targetPoint" />
          </mxGeometry>
        </mxCell>
        <mxCell id="McAtrPIl6zo0Tuam-e3Y-59" value="" style="endArrow=classic;html=1;rounded=0;entryX=0.25;entryY=0;entryDx=0;entryDy=0;exitX=1;exitY=0.75;exitDx=0;exitDy=0;" edge="1" parent="1" source="McAtrPIl6zo0Tuam-e3Y-6" target="McAtrPIl6zo0Tuam-e3Y-16">
          <mxGeometry width="50" height="50" relative="1" as="geometry">
            <mxPoint x="530" y="250" as="sourcePoint" />
            <mxPoint x="580" y="200" as="targetPoint" />
          </mxGeometry>
        </mxCell>
        <mxCell id="McAtrPIl6zo0Tuam-e3Y-60" value="Uses" style="text;html=1;align=center;verticalAlign=middle;whiteSpace=wrap;rounded=0;" vertex="1" parent="1">
          <mxGeometry x="600" y="230" width="60" height="30" as="geometry" />
        </mxCell>
        <mxCell id="McAtrPIl6zo0Tuam-e3Y-62" value="Uses" style="text;html=1;align=center;verticalAlign=middle;whiteSpace=wrap;rounded=0;" vertex="1" parent="1">
          <mxGeometry x="570" y="260" width="60" height="30" as="geometry" />
        </mxCell>
        <mxCell id="McAtrPIl6zo0Tuam-e3Y-63" value="Uses" style="text;html=1;align=center;verticalAlign=middle;whiteSpace=wrap;rounded=0;" vertex="1" parent="1">
          <mxGeometry x="500" y="270" width="60" height="30" as="geometry" />
        </mxCell>
        <mxCell id="McAtrPIl6zo0Tuam-e3Y-64" value="Uses" style="text;html=1;align=center;verticalAlign=middle;whiteSpace=wrap;rounded=0;" vertex="1" parent="1">
          <mxGeometry x="378" y="270" width="60" height="30" as="geometry" />
        </mxCell>
        <mxCell id="McAtrPIl6zo0Tuam-e3Y-65" value="Uses" style="text;html=1;align=center;verticalAlign=middle;whiteSpace=wrap;rounded=0;" vertex="1" parent="1">
          <mxGeometry x="256" y="270" width="60" height="30" as="geometry" />
        </mxCell>
        <mxCell id="McAtrPIl6zo0Tuam-e3Y-66" value="Uses&lt;div&gt;[HTTP]&lt;/div&gt;" style="text;html=1;align=center;verticalAlign=middle;whiteSpace=wrap;rounded=0;" vertex="1" parent="1">
          <mxGeometry x="378" y="120" width="60" height="30" as="geometry" />
        </mxCell>
        <mxCell id="McAtrPIl6zo0Tuam-e3Y-67" value="" style="swimlane;startSize=0;dashed=1;dashPattern=8 8;" vertex="1" parent="1">
          <mxGeometry x="-370" y="150" width="1500" height="480" as="geometry" />
        </mxCell>
        <mxCell id="McAtrPIl6zo0Tuam-e3Y-68" value="My meeting API" style="text;html=1;align=center;verticalAlign=middle;whiteSpace=wrap;rounded=0;fontStyle=1" vertex="1" parent="McAtrPIl6zo0Tuam-e3Y-67">
          <mxGeometry x="260" width="260" height="30" as="geometry" />
        </mxCell>
        <mxCell id="McAtrPIl6zo0Tuam-e3Y-69" value="" style="swimlane;startSize=0;dashed=1;dashPattern=8 8;" vertex="1" parent="1">
          <mxGeometry x="-460" y="10" width="1640" height="630" as="geometry" />
        </mxCell>
        <mxCell id="McAtrPIl6zo0Tuam-e3Y-70" value="My meeting System&lt;div&gt;&lt;span style=&quot;font-weight: normal;&quot;&gt;[System]&lt;/span&gt;&lt;/div&gt;" style="text;html=1;align=center;verticalAlign=middle;whiteSpace=wrap;rounded=0;fontStyle=1" vertex="1" parent="McAtrPIl6zo0Tuam-e3Y-69">
          <mxGeometry x="260" width="260" height="30" as="geometry" />
        </mxCell>
        <mxCell id="McAtrPIl6zo0Tuam-e3Y-71" value="publishes event to subcribe" style="text;html=1;align=center;verticalAlign=middle;whiteSpace=wrap;rounded=0;" vertex="1" parent="McAtrPIl6zo0Tuam-e3Y-69">
          <mxGeometry x="1200" y="390" width="110" height="30" as="geometry" />
        </mxCell>
        <mxCell id="McAtrPIl6zo0Tuam-e3Y-72" value="publishes event to subcribe" style="text;html=1;align=center;verticalAlign=middle;whiteSpace=wrap;rounded=0;" vertex="1" parent="McAtrPIl6zo0Tuam-e3Y-69">
          <mxGeometry x="1030" y="400" width="110" height="30" as="geometry" />
        </mxCell>
        <mxCell id="McAtrPIl6zo0Tuam-e3Y-73" value="publishes event to subcribe" style="text;html=1;align=center;verticalAlign=middle;whiteSpace=wrap;rounded=0;" vertex="1" parent="McAtrPIl6zo0Tuam-e3Y-69">
          <mxGeometry x="850" y="400" width="110" height="30" as="geometry" />
        </mxCell>
        <mxCell id="McAtrPIl6zo0Tuam-e3Y-76" value="publishes event to subcribe" style="text;html=1;align=center;verticalAlign=middle;whiteSpace=wrap;rounded=0;" vertex="1" parent="McAtrPIl6zo0Tuam-e3Y-69">
          <mxGeometry x="670" y="410" width="110" height="30" as="geometry" />
        </mxCell>
      </root>
    </mxGraphModel>
  </diagram>
</mxfile>
